<svg width="31" height="31" viewBox="0 0 31 31" fill="none" xmlns="http://www.w3.org/2000/svg">
<g clip-path="url(#clip0)">
<path d="M6.74541 18.3932L5.68595 22.3483L1.81366 22.4302C0.65641 20.2838 0 17.828 0 15.2183C0 12.6947 0.613727 10.3149 1.7016 8.21948H1.70243L5.14986 8.85152L6.66004 12.2783C6.34397 13.1997 6.17169 14.1889 6.17169 15.2183C6.17181 16.3354 6.37417 17.4057 6.74541 18.3932Z" fill="#FBBB00"/>
<path d="M30.1706 12.3752C30.3454 13.2958 30.4365 14.2466 30.4365 15.2182C30.4365 16.3078 30.322 17.3705 30.1037 18.3957C29.3629 21.8842 27.4271 24.9304 24.7456 27.086L24.7447 27.0852L20.4025 26.8636L19.788 23.0273C21.5673 21.9837 22.9579 20.3507 23.6904 18.3957H15.5527V12.3752H23.8091H30.1706Z" fill="#518EF8"/>
<path d="M24.7447 27.0853L24.7455 27.0861C22.1375 29.1824 18.8246 30.4367 15.2182 30.4367C9.42265 30.4367 4.38389 27.1974 1.81348 22.4303L6.74523 18.3933C8.03041 21.8233 11.3391 24.2649 15.2182 24.2649C16.8855 24.2649 18.4475 23.8142 19.7878 23.0274L24.7447 27.0853Z" fill="#28B446"/>
<path d="M24.9322 3.50355L20.0021 7.53974C18.6149 6.67265 16.9752 6.17175 15.2184 6.17175C11.2516 6.17175 7.88096 8.7254 6.66016 12.2783L1.70249 8.21957H1.70166C4.23444 3.33632 9.33675 0 15.2184 0C18.9109 0 22.2966 1.31532 24.9322 3.50355Z" fill="#F14336"/>
</g>
<rect x="0.5" y="0.5" width="29.4367" height="29.4367" stroke="white"/>
<defs>
<clipPath id="clip0">
</clipPath>
</defs>
</svg>
